# xmcd CD database file
#
# Track frame offsets:
#	150
#	40556
#	80020
#	115712
#	155447
#	202326
#	239834
#	284867
#
# Disc length: 3871 seconds
#
# Revision: 0
# Processed by: cddbd v1.5.1PL0 Copyright (c) Steve Scherf et al.
# Submitted via: CDex 1.51
#
DISCID=760f1d08
DTITLE=Dave Young Quintet - Mostly Mingus
DYEAR=2005
DGENRE=Jazz
TTITLE0=Oscar Pettiford
TTITLE1=Wham Bam Thank You Ma'am
TTITLE2=Goodbye Pork Pie Hat
TTITLE3=Nostalgia in Times Square
TTITLE4=Bass Clef
TTITLE5=Self-portrait in Three Colours
TTITLE6=All the Things You'd Be Right Now, If Sigmund Freud's Wife was Your Mother
TTITLE7=Cherokee Revisited
EXTD=YEAR: 2005
EXTT0=
EXTT1=
EXTT2=
EXTT3=
EXTT4=
EXTT5=
EXTT6=
EXTT7=
PLAYORDER=
